<svg width="231" height="192" viewBox="0 0 231 192" fill="none" xmlns="http://www.w3.org/2000/svg">
<path d="M34.9626 140.68H196.39L208.279 88.4111C208.367 88.4111 208.543 88.4111 208.719 88.4111C220.96 88.4111 231 77.5968 231 64.3162C231 51.1304 221.048 40.3162 208.719 40.3162C196.39 40.3162 186.438 51.2253 186.438 64.3162C186.438 67.921 187.143 71.4308 188.464 74.4664L162.924 94.2925C160.282 96.2846 158.433 95.6206 157.024 93.3439L126.64 44.9644C133.334 40.7905 137.913 32.917 137.913 24C137.913 10.8142 127.873 0 115.632 0C103.215 0 93.2631 10.8142 93.2631 24C93.2631 32.917 97.8425 40.7905 104.536 44.9644L74.1525 93.3439C72.7434 95.5257 71.1582 96.1897 68.6043 94.1976L42.7125 74.087C43.9455 71.1462 44.65 67.8261 44.65 64.3162C44.65 51.2253 34.6104 40.3162 22.369 40.3162C10.0396 40.3162 0 51.1304 0 64.3162C0 77.5968 10.0396 88.4111 22.369 88.4111C22.5452 88.4111 22.8094 88.4111 22.9855 88.4111L34.9626 140.68ZM38.3092 155.763L41.2154 168.379C44.8262 184.032 52.7522 192 67.8997 192H163.364C178.512 192 186.438 184.221 189.961 168.379L192.867 155.763H38.3092Z" fill="#1C1C1E"/>
</svg>
